<svg id="color_line" height="512" viewBox="0 0 74 74" width="512" xmlns="http://www.w3.org/2000/svg" data-name="color line"><path d="m54.945 55.33h10.479a3.6 3.6 0 0 0 3.607-3.607v-21.83a3.6 3.6 0 0 0 -3.607-3.607h-56.848a3.6 3.6 0 0 0 -3.607 3.607v21.83a3.6 3.6 0 0 0 3.607 3.607h8.9" fill="#9297ab"/><path d="m69.03 29.89v21.83a3.59 3.59 0 0 1 -3.06 3.56 3.176 3.176 0 0 0 .06-.62v-21.83a3.6 3.6 0 0 0 -3.61-3.61h-56.84a2.5 2.5 0 0 0 -.55.05 3.584 3.584 0 0 1 3.55-2.98h56.84a3.6 3.6 0 0 1 3.61 3.6z" fill="#84879c"/><path d="m15 45.501h43.998v4.999h-43.998z" fill="#707583"/><path d="m59 51h-44a.5.5 0 0 1 -.5-.5v-5a.5.5 0 0 1 .5-.5h44a.5.5 0 0 1 .5.5v5a.5.5 0 0 1 -.5.5zm-43.5-1h43v-4h-43z" fill="#323c6b"/><path d="m14.288 20.507h4.765v5.779h-4.765z" fill="#9297ab"/><path d="m19.053 26.786h-4.765a.5.5 0 0 1 -.5-.5v-5.779a.5.5 0 0 1 .5-.5h4.765a.5.5 0 0 1 .5.5v5.779a.5.5 0 0 1 -.5.5zm-4.265-1h3.765v-4.779h-3.765z" fill="#323c6b"/><path d="m54.947 20.507h4.765v5.779h-4.765z" fill="#9297ab"/><path d="m59.712 26.786h-4.765a.5.5 0 0 1 -.5-.5v-5.779a.5.5 0 0 1 .5-.5h4.765a.5.5 0 0 1 .5.5v5.779a.5.5 0 0 1 -.5.5zm-4.265-1h3.765v-4.779h-3.765z" fill="#323c6b"/><path d="m54.947 26.786h-35.894a.5.5 0 0 1 0-1h35.894a.5.5 0 0 1 0 1z" fill="#323c6b"/><circle cx="61.985" cy="33.146" fill="#fe7058" r="2.046"/><path d="m61.984 35.692a2.546 2.546 0 1 1 2.547-2.546 2.548 2.548 0 0 1 -2.547 2.546zm0-4.092a1.546 1.546 0 1 0 1.547 1.546 1.548 1.548 0 0 0 -1.547-1.546z" fill="#323c6b"/><circle cx="54.933" cy="33.146" fill="#21b3a9" r="2.046"/><path d="m54.933 35.692a2.546 2.546 0 1 1 2.546-2.546 2.548 2.548 0 0 1 -2.546 2.546zm0-4.092a1.546 1.546 0 1 0 1.546 1.546 1.548 1.548 0 0 0 -1.546-1.546z" fill="#323c6b"/><path d="m67.188 58.591a.5.5 0 0 1 -.134-.982 6.127 6.127 0 0 0 4.477-5.886.5.5 0 0 1 1 0 7.13 7.13 0 0 1 -5.209 6.85.51.51 0 0 1 -.134.018z" fill="#323c6b"/><path d="m72.03 49.8a.5.5 0 0 1 -.5-.5v-.333a.5.5 0 0 1 1 0v.333a.5.5 0 0 1 -.5.5z" fill="#323c6b"/><path d="m19.053 45.501h35.892v24.881h-35.892z" fill="#e1e6e9"/><path d="m54.944 70.882h-35.891a.5.5 0 0 1 -.5-.5v-24.882a.5.5 0 0 1 .5-.5h35.891a.5.5 0 0 1 .5.5v24.882a.5.5 0 0 1 -.5.5zm-35.392-1h34.892v-23.882h-34.891z" fill="#323c6b"/><path d="m55.486 13.19v13.096h-37.094v-20.904h29.289z" fill="#eeefee"/><path d="m55.485 26.786h-37.093a.5.5 0 0 1 -.5-.5v-20.904a.5.5 0 0 1 .5-.5h29.29a.5.5 0 0 1 .354.146l7.8 7.808a.5.5 0 0 1 .146.354v13.1a.5.5 0 0 1 -.497.496zm-36.594-1h36.094v-12.386l-7.51-7.518h-28.583z" fill="#323c6b"/><path d="m15.392 10.3a.5.5 0 0 1 -.5-.5v-.626a.5.5 0 0 1 1 0v.626a.5.5 0 0 1 -.5.5z" fill="#323c6b"/><path d="m15.392 7.382a.5.5 0 0 1 -.5-.5v-4.5a.5.5 0 0 1 .5-.5h6.072a.5.5 0 0 1 0 1h-5.572v4a.5.5 0 0 1 -.5.5z" fill="#323c6b"/><path d="m47.681 13.19h7.808l-7.808-7.808z" fill="#d5d6db"/><g fill="#323c6b"><path d="m55.488 13.69h-7.806a.5.5 0 0 1 -.5-.5v-7.808a.5.5 0 0 1 .854-.354l7.807 7.808a.5.5 0 0 1 -.354.854zm-7.307-1h6.1l-6.1-6.1z"/><path d="m40.325 10.917h-16.656a.5.5 0 0 1 0-1h16.656a.5.5 0 0 1 0 1z"/><path d="m50.208 16.334h-26.539a.5.5 0 0 1 0-1h26.539a.5.5 0 0 1 0 1z"/><path d="m50.208 21.751h-26.539a.5.5 0 0 1 0-1h26.539a.5.5 0 0 1 0 1z"/><path d="m65.424 55.83h-10.48a.5.5 0 0 1 0-1h10.48a3.11 3.11 0 0 0 3.106-3.106v-21.831a3.11 3.11 0 0 0 -3.106-3.106h-56.848a3.11 3.11 0 0 0 -3.106 3.106v21.83a3.11 3.11 0 0 0 3.106 3.107h10.477a.5.5 0 1 1 0 1h-10.477a4.111 4.111 0 0 1 -4.106-4.107v-21.83a4.111 4.111 0 0 1 4.106-4.106h56.848a4.111 4.111 0 0 1 4.106 4.106v21.83a4.111 4.111 0 0 1 -4.106 4.107z"/></g><path d="m8.458 46.151a.65.65 0 0 1 -.65-.65v-.625a.65.65 0 0 1 1.3 0v.624a.65.65 0 0 1 -.65.651z" fill="#fff"/><path d="m8.458 43.235a.65.65 0 0 1 -.65-.65v-7.377a.65.65 0 0 1 1.3 0v7.376a.65.65 0 0 1 -.65.651z" fill="#fff"/></svg>